<svg xmlns="http://www.w3.org/2000/svg" width="192" height="192" viewBox="0 0 512 512">
  <rect width="512" height="512" fill="#cc785c" rx="80" ry="80"/>
  <path d="M110 140 C110 130, 120 120, 135 120 L256 120 L256 392 L135 392 C120 392, 110 382, 110 372 Z" fill="#faf9f5"/>
  <path d="M402 140 C402 130, 392 120, 377 120 L256 120 L256 392 L377 392 C392 392, 402 382, 402 372 Z" fill="#efe9de"/>
  <line x1="256" y1="120" x2="256" y2="392" stroke="#cc785c" stroke-width="3"/>
  <line x1="135" y1="170" x2="220" y2="170" stroke="#cc785c" stroke-width="4" opacity="0.6"/>
  <line x1="135" y1="195" x2="210" y2="195" stroke="#cc785c" stroke-width="4" opacity="0.6"/>
  <line x1="135" y1="220" x2="225" y2="220" stroke="#cc785c" stroke-width="4" opacity="0.6"/>
  <line x1="135" y1="245" x2="215" y2="245" stroke="#cc785c" stroke-width="4" opacity="0.6"/>
  <line x1="292" y1="170" x2="377" y2="170" stroke="#cc785c" stroke-width="4" opacity="0.6"/>
  <line x1="302" y1="195" x2="377" y2="195" stroke="#cc785c" stroke-width="4" opacity="0.6"/>
  <line x1="287" y1="220" x2="377" y2="220" stroke="#cc785c" stroke-width="4" opacity="0.6"/>
  <g transform="translate(256, 290)">
    <path d="M-35 -25 L-30 35 C-30 48, -17 55, 0 55 C17 55, 30 48, 30 35 L35 -25 Z" fill="#3d3d3a"/>
    <ellipse cx="0" cy="-25" rx="35" ry="8" fill="#faf9f5" stroke="#3d3d3a" stroke-width="3"/>
    <path d="M32 -15 C45 -15, 50 -5, 50 5 C50 15, 45 20, 35 22" fill="none" stroke="#3d3d3a" stroke-width="5" stroke-linecap="round"/>
    <path d="M-12 -40 Q-8 -50, -12 -60" fill="none" stroke="#faf9f5" stroke-width="3" stroke-linecap="round" opacity="0.8"/>
    <path d="M0 -45 Q4 -55, 0 -65" fill="none" stroke="#faf9f5" stroke-width="3" stroke-linecap="round" opacity="0.8"/>
    <path d="M12 -40 Q16 -50, 12 -60" fill="none" stroke="#faf9f5" stroke-width="3" stroke-linecap="round" opacity="0.8"/>
  </g>
  <rect x="110" y="380" width="292" height="12" fill="#a9583e" opacity="0.5"/>
</svg>
